<mxfile host="app.diagrams.net" modified="2023-07-20T02:12:20.878Z" agent="Mozilla/5.0 (Macintosh; Intel Mac OS X 10_15_7) AppleWebKit/537.36 (KHTML, like Gecko) Chrome/114.0.0.0 Safari/537.36" version="21.6.1" etag="yM7a4PT0MlYxppMvtUOd" type="github">
  <diagram name="Page-1" id="zMhFkTFcq4nP1bQZMF7s">
    <mxGraphModel>
      <root>
        <mxCell id="0" />
        <mxCell id="1" parent="0" />
      </root>
    </mxGraphModel>
  </diagram>
</mxfile>
